EMG
version=1
nRows=24
nColumns=17
inDegrees=no
endheader
time	EMG01_right_gast_med	EMG02_right_glut_max	EMG03_left_gast_med	EMG04_left_glut_max	EMG05_right_glut_med	EMG06_right_bic_fem	EMG07_right_rect_fem	EMG08_right_vast_lat	EMG09_right_vast_med	EMG10_right_tens_fasc_lat	EMG11_left_glut_med	EMG12_left_bic_fem	EMG13_left_rect_fem	EMG14_left_vast_lat	EMG15_left_vast_med	EMG16_left_tens_fasc_lat
      0.64000000	     -0.67095423	     -4.52363491	   -580.71801758	    -47.80155563	    164.37002563	    -70.81433105	      1.57114601	    -22.51187897	    -20.56517410	    -17.30477715	      1.10629249	    -15.28388596	      5.46345901	      6.72146225	     25.53910255	    -41.28804016
      0.65000000	     -5.75252628	    -28.31422424	    212.95208740	    -89.44087982	    160.00689697	     -9.11049461	      2.95728636	    -12.35534096	    -31.23284912	    -31.37818146	     -6.25105667	     -1.27961016	    -25.26529694	     -4.68029547	     18.95148277	    -32.72484970
      0.66000000	    -14.75144100	    -74.28913879	    -16.77568817	    -93.69798279	    112.07965851	    -48.85488892	     14.68131924	     -5.10095692	    -53.34246445	    -48.49378204	     -9.85011959	     -1.81612241	      3.29218435	     -7.44960785	     49.12861633	    -21.20131874
      0.67000000	    -22.73056221	    -85.02779388	   -134.76101685	   -107.88457489	    187.70657349	     24.86144829	     -3.95706058	    -29.35191727	     22.50298500	    -67.54312134	     -0.32671070	     12.25614166	     -0.30462456	      1.66457605	     51.84411240	    -16.58315849
      0.68000000	    -19.33054161	    -90.42562103	      9.21661377	   -119.10367584	     90.44676208	    -48.64018250	      1.97607136	     -7.96271181	    -15.07110023	    -45.39736938	     -6.47363377	     -8.89780617	      8.48520660	     -6.65689754	     27.64604378	    -32.40045929
      0.69000000	    -27.23266983	    -50.97380066	   -649.54754639	    -80.12962341	    -32.61955261	    -34.10663605	     -0.56801510	     -1.93927383	    -22.47857094	    -23.73485184	      5.92793655	     12.10393333	      5.37090349	      0.13180399	     21.04226685	    -10.60486603
      0.70000000	    -13.06696415	    -21.61031151	   -116.02890015	    -62.21207047	    -86.87774658	    -11.07747936	     -8.20338058	     -6.90322208	    -24.17158127	    -29.08325768	     -7.93497753	      5.94217396	    -23.44526672	     -0.62520337	     15.48601723	    -29.04707336
      0.71000000	     -2.19250345	    -14.86711693	    114.02227783	    -31.42167854	   -221.98506165	   -115.69660950	    -10.38368130	     10.98029137	    -11.54759216	    -11.25854301	      0.13761616	      1.21311450	    -11.73978996	    -18.60330963	      2.15485525	    -10.97563362
      0.72000000	      0.45256376	     -0.11666536	    -21.12836075	     -2.76656842	   -446.46658325	     53.34913254	     -7.61298561	     -7.00645828	    -22.32796288	    -10.76912785	    -12.43225765	      0.45587826	    -16.08510017	     -5.77434063	    -12.35869503	    -10.98152256
      0.73000000	     -2.82691836	     48.58289337	   -159.22990417	      7.50629377	   -292.96435547	    -30.39173889	     -5.74513054	      2.65361309	    -46.23412323	      2.69564629	     -0.81262529	     -7.85058403	    -33.96849823	     -6.19012833	    -24.90325546	    -44.59249878
      0.74000000	      4.88907003	     91.31285858	     -6.16595268	     13.42095375	   -297.94686890	     80.42784119	    -23.01449966	     -8.62966633	    -44.68454742	     26.40785217	      1.93178320	    -13.07370949	    -49.71501160	     -3.30151272	    -26.62014771	    -38.88819504
      0.75000000	     24.34243774	     47.05953979	    -48.88291931	     -3.07566404	   -116.57138062	     28.93796921	    -22.78896523	    -11.89511585	     -3.52245474	     61.82541656	      4.91847038	    -10.37984467	    -27.41571999	     -2.69597411	    -11.75393772	    -40.89210129
      0.76000000	     20.47994232	     96.42297363	     42.77208710	    -18.13982582	      4.45950317	    177.65718079	     -5.94940567	      7.06576109	    105.54798889	     76.93235016	     -1.85628319	     -2.34868526	    -14.98072529	     -6.54251575	     -4.97916603	    -60.91627121
      0.77000000	      4.96287918	     30.58703423	    -57.35521698	    -20.80694389	     93.03607941	     19.44875145	    -19.06469345	      1.10442805	    280.71215820	     50.45135117	     -0.27728367	     -5.94579935	    -18.06836128	     -1.04064083	     -9.22954941	    -59.19952011
      0.78000000	    -30.45973206	     16.48777962	     16.74996948	    -10.15870190	    476.12353516	    298.06121826	     10.47756004	    -56.75920105	     -6.92444563	    -13.07651424	    -12.10169411	     -7.59714127	     -5.20437622	     10.44137192	     -6.49037981	    -76.16069031
      0.79000000	    -42.38701248	    -35.12642288	     -6.50515938	      1.03712392	    104.07994080	     56.63027954	      0.82705832	    -16.62691689	    -53.04693222	    -25.67716980	     -1.15850341	     -1.40005815	    -17.77460289	      2.73065662	     20.39445496	    -66.28533936
      0.80000000	    -11.00237560	    -49.55145264	     -6.70356655	     21.57650757	   -370.52746582	   -193.89912415	      7.31393194	    -26.37564087	    -27.01484489	    -62.51467896	     -3.07164669	     -1.04825783	      0.30523515	     -2.03915405	     -7.21644020	    -69.35649872
      0.81000000	     67.97691345	    -36.12833405	     -0.74570131	     29.41087914	   -241.68763733	    -82.45320129	      2.27288651	      9.36071110	     45.82561874	    -53.96607590	     -7.81547165	     -3.27897406	      5.92736340	     -8.91034031	    -56.08409119	    -51.61152649
      0.82000000	     61.34406281	    -26.73057938	     -3.83310866	      8.10675621	   -251.36480713	   -123.10289001	      1.98313618	      6.57847595	   -141.69712830	     11.07644939	     -3.19974613	     -1.94399810	     14.90669441	    -10.84878159	    -32.15306091	    -80.31105804
      0.83000000	      7.08267784	     46.08683014	     -7.84014797	    -20.63023376	    321.31079102	     -4.51220703	     21.21229172	     -4.26700401	   -127.81235504	    -23.79012871	     -1.90582919	    -11.03298950	      9.71650124	    -12.83844948	    -12.50634193	    -81.68546295
      0.84000000	    -12.22408009	     63.30458450	     -7.08468962	    -47.75246048	   -152.81268311	    103.13367462	     11.20107651	      6.68864965	     -0.65413094	   -106.77297974	     -5.94177246	    -11.60647583	     16.40510368	     -5.92818880	     -8.56697273	    -80.53150177
      0.85000000	    -29.21572495	     72.02380371	    -16.99352646	    -50.05453873	   -117.44691467	     45.91857529	    -17.54343033	     24.03244591	    127.18913269	   -130.97290039	    -10.84501743	    -12.40095615	    -10.11288929	      8.93156528	      7.81047630	    -47.76785278
      0.86000000	    -49.06746674	     36.35792160	      5.99409580	    -55.88281631	    236.12330627	     78.70849609	    -18.55060768	     24.03642082	    248.74636841	    -78.21893311	    -12.45966244	    -19.16803741	      7.79663229	     17.47167397	      9.66483402	    -35.42968750
      0.87000000	    -13.59575176	    -39.60672760	     10.98214722	    -31.22462845	    205.02366638	     -9.59676743	    -18.07957458	     41.60115814	     60.11341476	    -39.43996429	     11.46630192	     -7.07340813	     11.69122314	     20.96184731	     11.01062775	     -3.82192945
